<svg xmlns="http://www.w3.org/2000/svg" data-name="Layer 1" width="740.675" height="473.949"><path d="M111.51 129.423a122.042 122.042 0 0 1 10.101-38.517q2.28-5.093 5.019-9.961a.744.744 0 0 0-1.284-.75 123.728 123.728 0 0 0-13.768 37.982q-1.033 5.583-1.554 11.246c-.088.952 1.4.946 1.487 0Z" fill="#e6e6e6"/><circle cx="130.23" cy="73.914" r="9.414" fill="#e6e6e6"/><path d="M112.474 129.673a79.174 79.174 0 0 1 6.553-24.988q1.478-3.304 3.255-6.462a.483.483 0 0 0-.833-.487 80.268 80.268 0 0 0-8.931 24.641q-.671 3.622-1.008 7.296c-.058.618.907.614.964 0Z" fill="#e6e6e6"/><circle cx="124.618" cy="93.662" r="6.108" fill="#e6e6e6"/><path d="M111.257 129.096a79.174 79.174 0 0 1-10.203-23.732q-.866-3.515-1.407-7.098a.483.483 0 0 0-.956.128 80.269 80.269 0 0 0 8.113 24.923q1.699 3.268 3.692 6.372c.335.523 1.093-.074.76-.593Z" fill="#e6e6e6"/><circle cx="98.683" cy="93.233" r="6.108" fill="#e6e6e6"/><path d="M322.17 347.526v-12a4.505 4.505 0 0 1 4.5-4.5h28a4.505 4.505 0 0 1 4.5 4.5v12a4.505 4.505 0 0 1-4.5 4.5h-28a4.505 4.505 0 0 1-4.5-4.5ZM353.67 271.026h-12a4.505 4.505 0 0 1-4.5-4.5v-49a4.505 4.505 0 0 1 4.5-4.5h12a4.505 4.505 0 0 1 4.5 4.5v49a4.505 4.505 0 0 1-4.5 4.5Z" transform="translate(-229.662 -213.026)" fill="#f2f2f2" style="isolation:isolate"/><path fill="#ccc" d="M108.007 9.5h20v4h-20zM108.007 40.5h20v4h-20z"/><path d="M383.67 271.026h-12a4.505 4.505 0 0 1-4.5-4.5v-49a4.505 4.505 0 0 1 4.5-4.5h12a4.505 4.505 0 0 1 4.5 4.5v49a4.505 4.505 0 0 1-4.5 4.5Z" transform="translate(-229.662 -213.026)" fill="#f2f2f2" style="isolation:isolate"/><path fill="#ccc" d="M138.007 9.5h20v4h-20zM138.007 40.5h20v4h-20z"/><path d="M413.67 271.026h-12a4.505 4.505 0 0 1-4.5-4.5v-49a4.505 4.505 0 0 1 4.5-4.5h12a4.505 4.505 0 0 1 4.5 4.5v49a4.505 4.505 0 0 1-4.5 4.5Z" transform="translate(-229.662 -213.026)" fill="#f2f2f2" style="isolation:isolate"/><path fill="#ccc" d="M168.007 9.5h20v4h-20zM168.007 40.5h20v4h-20z"/><path d="M429.67 352.026h-12a4.505 4.505 0 0 1-4.5-4.5v-49a4.505 4.505 0 0 1 4.5-4.5h12a4.505 4.505 0 0 1 4.5 4.5v49a4.505 4.505 0 0 1-4.5 4.5Z" transform="translate(-229.662 -213.026)" fill="#f2f2f2" style="isolation:isolate"/><path fill="#ccc" d="M184.007 90.5h20v4h-20zM184.007 121.5h20v4h-20z"/><path d="M459.67 352.026h-12a4.505 4.505 0 0 1-4.5-4.5v-49a4.505 4.505 0 0 1 4.5-4.5h12a4.505 4.505 0 0 1 4.5 4.5v49a4.505 4.505 0 0 1-4.5 4.5Z" transform="translate(-229.662 -213.026)" fill="#f2f2f2" style="isolation:isolate"/><path fill="#ccc" d="M214.007 90.5h20v4h-20zM214.007 121.5h20v4h-20z"/><path d="M489.67 352.026h-12a4.505 4.505 0 0 1-4.5-4.5v-49a4.505 4.505 0 0 1 4.5-4.5h12a4.505 4.505 0 0 1 4.5 4.5v49a4.505 4.505 0 0 1-4.5 4.5Z" transform="translate(-229.662 -213.026)" fill="#f2f2f2" style="isolation:isolate"/><path fill="#ccc" d="M244.007 90.5h20v4h-20zM244.007 121.5h20v4h-20z"/><path d="M350.67 433.026h-12a4.505 4.505 0 0 1-4.5-4.5v-49a4.505 4.505 0 0 1 4.5-4.5h12a4.505 4.505 0 0 1 4.5 4.5v49a4.505 4.505 0 0 1-4.5 4.5Z" transform="translate(-229.662 -213.026)" fill="#f2f2f2" style="isolation:isolate"/><path fill="#ccc" d="M105.007 171.5h20v4h-20zM105.007 202.5h20v4h-20z"/><path d="M380.67 433.026h-12a4.505 4.505 0 0 1-4.5-4.5v-49a4.505 4.505 0 0 1 4.5-4.5h12a4.505 4.505 0 0 1 4.5 4.5v49a4.505 4.505 0 0 1-4.5 4.5Z" transform="translate(-229.662 -213.026)" fill="#f2f2f2" style="isolation:isolate"/><path fill="#ccc" d="M135.007 171.5h20v4h-20zM135.007 202.5h20v4h-20z"/><path d="M410.67 433.026h-12a4.505 4.505 0 0 1-4.5-4.5v-49a4.505 4.505 0 0 1 4.5-4.5h12a4.505 4.505 0 0 1 4.5 4.5v49a4.505 4.505 0 0 1-4.5 4.5Z" transform="translate(-229.662 -213.026)" fill="#f2f2f2" style="isolation:isolate"/><path fill="#ccc" d="M165.007 171.5h20v4h-20zM165.007 202.5h20v4h-20z"/><path d="M443.67 271.026h-12a4.505 4.505 0 0 1-4.5-4.5v-49a4.505 4.505 0 0 1 4.5-4.5h12a4.505 4.505 0 0 1 4.5 4.5v49a4.505 4.505 0 0 1-4.5 4.5Z" transform="translate(-229.662 -213.026)" fill="#f2f2f2" style="isolation:isolate"/><path fill="#ccc" d="M198.007 9.5h20v4h-20zM198.007 40.5h20v4h-20z"/><path d="M473.67 271.026h-12a4.505 4.505 0 0 1-4.5-4.5v-49a4.505 4.505 0 0 1 4.5-4.5h12a4.505 4.505 0 0 1 4.5 4.5v49a4.505 4.505 0 0 1-4.5 4.5Z" transform="translate(-229.662 -213.026)" fill="#f2f2f2" style="isolation:isolate"/><path fill="#ccc" d="M228.007 9.5h20v4h-20zM228.007 40.5h20v4h-20z"/><path d="M503.67 271.026h-12a4.505 4.505 0 0 1-4.5-4.5v-49a4.505 4.505 0 0 1 4.5-4.5h12a4.505 4.505 0 0 1 4.5 4.5v49a4.505 4.505 0 0 1-4.5 4.5Z" transform="translate(-229.662 -213.026)" fill="#f2f2f2" style="isolation:isolate"/><path fill="#ccc" d="M258.007 9.5h20v4h-20zM258.007 40.5h20v4h-20z"/><path d="M533.67 271.026h-12a4.505 4.505 0 0 1-4.5-4.5v-49a4.505 4.505 0 0 1 4.5-4.5h12a4.505 4.505 0 0 1 4.5 4.5v49a4.505 4.505 0 0 1-4.5 4.5Z" transform="translate(-229.662 -213.026)" fill="#f2f2f2" style="isolation:isolate"/><path fill="#ccc" d="M288.007 9.5h20v4h-20zM288.007 40.5h20v4h-20zM348.948 59.5h-285a1 1 0 0 1 0-2h285a1 1 0 0 1 0 2ZM348.948 140.5h-285a1 1 0 0 1 0-2h285a1 1 0 0 1 0 2ZM348.948 221.5h-285a1 1 0 0 1 0-2h285a1 1 0 0 1 0 2ZM332.07 378.482c0-7.732-29.102-14-65-14s-65 6.268-65 14c0 4.956 11.964 9.307 30 11.795v76.705a6.5 6.5 0 0 0 13 0v-75.324c6.872.533 14.277.824 22 .824s15.128-.291 22-.824v75.324a6.5 6.5 0 0 0 13 0v-76.705c18.036-2.488 30-6.84 30-11.795Z"/><path fill="#a0616a" d="M319.563 460.906h12.26l5.832-47.288h-18.094l.002 47.288z"/><path d="m355.467 472.289-38.53.001-.001-14.887h23.644a14.887 14.887 0 0 1 14.887 14.886Z" fill="#2f2e41"/><path fill="#a0616a" d="m338.701 454.064 11.697-3.671-8.592-46.865-17.264 5.417 14.159 45.119z"/><path d="m376.366 454.175-36.763 11.537-4.458-14.204 22.56-7.08a14.887 14.887 0 0 1 18.66 9.747ZM330.499 432.299l-22.427-58.871c-5.032 1.181-47.227 10.518-61.36-4.529-4.843-5.157-5.787-12.629-2.807-22.208l8.248-10.364.256.014c3.118.164 76.435 4.273 81.461 26.388 4.238 18.645 11.977 53.406 14.247 63.616a4.516 4.516 0 0 1-2.814 5.183l-9.019 3.382a4.462 4.462 0 0 1-1.572.286 4.513 4.513 0 0 1-4.213-2.897Z" fill="#2f2e41"/><path d="m317.499 439.299-22.427-58.871c-5.032 1.181-47.227 10.517-61.36-4.529-4.843-5.157-5.787-12.629-2.807-22.208l8.248-10.364.256.014c3.118.164 76.435 4.273 81.461 26.388 4.238 18.645 11.977 53.406 14.247 63.616a4.516 4.516 0 0 1-2.814 5.183l-9.019 3.382a4.462 4.462 0 0 1-1.572.286 4.513 4.513 0 0 1-4.213-2.897Z" fill="#2f2e41"/><path d="M347.807 298.176a10.527 10.527 0 0 0-.885 1.402l-49.32 5.196-7.1-9.734-16.09 8.794 13.944 23.622 60.487-15.423a10.496 10.496 0 1 0-1.036-13.857Z" fill="#a0616a"/><path d="M230.588 356.8a4.507 4.507 0 0 1-1.819-4.349c2.783-18.343-.419-44.62-3.594-63.433a24.795 24.795 0 0 1 27.559-28.761 79.865 79.865 0 0 1 9.913 1.954 24.596 24.596 0 0 1 18.582 24.468c-.475 18.154 3.211 40.805 4.818 49.7a4.519 4.519 0 0 1-.834 3.512 4.392 4.392 0 0 1-3.095 1.75c-17.808 1.817-37.012 10.501-46.875 15.516a4.5 4.5 0 0 1-2.05.501 4.429 4.429 0 0 1-2.605-.858Z" fill="#b4b6bb"/><path d="M278.659 309.488a4.47 4.47 0 0 1-2.474-2.397l-9.931-22.943a11.5 11.5 0 1 1 21.107-9.135l9.931 22.942a4.506 4.506 0 0 1-2.342 5.917l-12.847 5.562a4.469 4.469 0 0 1-3.444.054Z" fill="#b4b6bb"/><path d="M300.807 296.176a10.527 10.527 0 0 0-.885 1.402l-49.32 5.196-7.1-9.734-16.09 8.794 13.944 23.622 60.487-15.423a10.496 10.496 0 1 0-1.036-13.857Z" fill="#a0616a"/><path d="M231.659 310.488a4.47 4.47 0 0 1-2.474-2.397l-9.931-22.943a11.5 11.5 0 1 1 21.107-9.135l9.931 22.942a4.506 4.506 0 0 1-2.342 5.917l-12.847 5.562a4.469 4.469 0 0 1-3.444.054Z" fill="#b4b6bb"/><circle cx="250.906" cy="227.891" r="24.561" fill="#a0616a"/><path d="M233.346 244.748a2.135 2.135 0 0 1 1.856-2.82 4.93 4.93 0 0 1 3.476 1.716 13.834 13.834 0 0 0 3.071 2.637c1.188.599 2.8.513 3.477-.629.636-1.072.2-2.508-.185-3.753a36.907 36.907 0 0 1-1.63-9.77c-.11-3.7.412-7.562 2.46-10.448 2.644-3.725 7.372-5.139 11.846-5.036s8.875 1.483 13.307 2.356c1.53.302 3.328.456 4.351-.73 1.088-1.26.689-3.301.226-5.004-1.201-4.417-2.475-8.984-5.265-12.552a18.898 18.898 0 0 0-12.061-6.79 28.938 28.938 0 0 0-13.463 1.528 36.096 36.096 0 0 0-17.682 12.319 29.236 29.236 0 0 0-5.578 21.6 26.667 26.667 0 0 0 9.885 16.855Z" fill="#2f2e41"/><path d="M139.566 303.876a122.042 122.042 0 0 1 10.1-38.517q2.28-5.092 5.019-9.96a.744.744 0 0 0-1.284-.75 123.728 123.728 0 0 0-13.768 37.981q-1.033 5.584-1.553 11.246c-.089.952 1.398.946 1.486 0Z" fill="#3f3d56"/><circle cx="158.285" cy="248.368" r="9.414" fill="#b4b6bb"/><path d="M140.529 304.126a79.174 79.174 0 0 1 6.553-24.988q1.479-3.303 3.255-6.462a.483.483 0 0 0-.832-.486 80.268 80.268 0 0 0-8.932 24.64q-.67 3.623-1.008 7.296c-.057.618.907.614.964 0Z" fill="#3f3d56"/><circle cx="152.673" cy="268.115" r="6.108" fill="#b4b6bb"/><path d="M139.312 303.55a79.174 79.174 0 0 1-10.203-23.733q-.865-3.514-1.407-7.097a.483.483 0 0 0-.956.128 80.269 80.269 0 0 0 8.113 24.922q1.7 3.269 3.692 6.373c.335.522 1.094-.074.76-.593Z" fill="#3f3d56"/><circle cx="126.738" cy="267.687" r="6.108" fill="#b4b6bb"/><path d="M120.562 308.954v-12a4.505 4.505 0 0 1 4.5-4.5h28a4.505 4.505 0 0 1 4.5 4.5v12a4.505 4.505 0 0 1-4.5 4.5h-28a4.505 4.505 0 0 1-4.5-4.5Z" fill="#ccc"/><rect x="289.07" y="305.482" width="86" height="7" rx="3.5" fill="#ccc"/><path d="M424.57 312.482h-89a6.507 6.507 0 0 1-6.5-6.5v-49a6.507 6.507 0 0 1 6.5-6.5h89a6.507 6.507 0 0 1 6.5 6.5v49a6.507 6.507 0 0 1-6.5 6.5Z" fill="#ccc"/><circle cx="380.07" cy="281.482" r="6" fill="#fff"/><path d="M651.07 378.482c0-7.732-29.102-14-65-14s-65 6.268-65 14c0 4.956 11.964 9.307 30 11.795v76.705a6.5 6.5 0 0 0 13 0v-75.324c6.872.533 14.277.824 22 .824s15.128-.291 22-.824v75.324a6.5 6.5 0 0 0 13 0v-76.705c18.036-2.488 30-6.84 30-11.795Z" fill="#ccc"/><circle cx="593.257" cy="222.34" r="28" fill="#2f2e41"/><path fill="#ffb8b8" d="M523.577 461.906h-12.26l-5.832-47.288h18.094l-.002 47.288z"/><path d="M502.56 458.403h23.644v14.886h-38.53a14.887 14.887 0 0 1 14.886-14.886Z" fill="#2f2e41"/><path fill="#ffb8b8" d="m504.439 455.064-11.697-3.671 8.592-46.865 17.264 5.417-14.159 45.119z"/><path d="m485.436 445.429 22.559 7.079-4.458 14.204-36.763-11.537a14.887 14.887 0 0 1 18.662-9.746ZM508.428 436.196a4.462 4.462 0 0 1-1.572-.286l-9.02-3.382a4.516 4.516 0 0 1-2.814-5.183c2.271-10.21 10.01-44.971 14.248-63.616 5.026-22.115 78.343-26.224 81.461-26.388l.256-.014 8.248 10.364c2.98 9.58 2.036 17.051-2.808 22.208-14.132 15.047-56.327 5.71-61.359 4.529l-22.427 58.87a4.513 4.513 0 0 1-4.213 2.898Z" fill="#2f2e41"/><path d="M521.428 443.196a4.462 4.462 0 0 1-1.572-.286l-9.02-3.382a4.516 4.516 0 0 1-2.814-5.183c2.271-10.21 10.01-44.971 14.248-63.616 5.026-22.115 78.343-26.224 81.461-26.388l.256-.014 8.248 10.364c2.98 9.58 2.036 17.051-2.808 22.208-14.132 15.046-56.327 5.71-61.359 4.529l-22.427 58.87a4.513 4.513 0 0 1-4.213 2.898Z" fill="#2f2e41"/><path d="M495.333 299.176a10.526 10.526 0 0 1 .885 1.402l49.32 5.196 7.1-9.734 16.09 8.794-13.944 23.622-60.487-15.423a10.496 10.496 0 1 1 1.036-13.857Z" fill="#ffb8b8"/><path d="M609.946 358.658a4.5 4.5 0 0 1-2.05-.5c-9.862-5.016-29.066-13.7-46.874-15.517a4.392 4.392 0 0 1-3.095-1.75 4.519 4.519 0 0 1-.834-3.511c1.607-8.896 5.293-31.547 4.818-49.701a24.596 24.596 0 0 1 18.582-24.468 79.864 79.864 0 0 1 9.913-1.954 24.795 24.795 0 0 1 27.56 28.761c-3.176 18.814-6.378 45.09-3.595 63.433a4.507 4.507 0 0 1-1.819 4.349 4.429 4.429 0 0 1-2.606.858Z" fill="#b4b6bb"/><path d="M562.824 310.807a4.496 4.496 0 0 1-1.787-.373l-12.848-5.562a4.506 4.506 0 0 1-2.342-5.917l9.932-22.942a11.5 11.5 0 1 1 21.107 9.135l-9.931 22.943a4.51 4.51 0 0 1-4.131 2.716Z" fill="#b4b6bb"/><circle cx="592.234" cy="228.891" r="24.561" fill="#ffb8b8"/><path d="M567.23 216.824a88.59 88.59 0 0 0 38.327 12.628l-4.04-4.84a29.688 29.688 0 0 0 9.17 1.82c3.13-.048 6.41-1.253 8.187-3.831a9.342 9.342 0 0 0 .625-8.63 17.694 17.694 0 0 0-5.566-6.96 33.14 33.14 0 0 0-30.844-5.512 19.806 19.806 0 0 0-9.213 5.91c-2.328 2.871-6.81 5.43-5.619 8.93Z" fill="#2f2e41"/><path d="M596.363 197.003a75.485 75.485 0 0 0-27.463-17.76c-6.638-2.459-13.864-3.978-20.805-2.581s-13.504 6.198-15.44 13.007c-1.583 5.569.052 11.564 2.509 16.806s5.737 10.102 7.724 15.54a35.468 35.468 0 0 1-35.689 47.562c6.82.914 13.105 4.119 19.771 5.825s14.533 1.59 19.486-3.185c5.241-5.053 5.346-13.268 5.093-20.543l-1.13-32.445c-.192-5.515-.356-11.207 1.633-16.355s6.716-9.656 12.234-9.61c4.183.036 7.885 2.57 11.24 5.069s6.904 5.165 11.07 5.536 8.923-2.711 8.61-6.882" fill="#2f2e41"/><path fill="#e6e6e6" d="m482.197 281.087 56.553 1.335 8.193 60.456-52.227 1.172-12.519-62.963z"/><path d="M542.333 297.176a10.526 10.526 0 0 1 .885 1.402l49.32 5.196 7.1-9.734 16.09 8.794-13.944 23.622-60.487-15.423a10.496 10.496 0 1 1 1.036-13.857Z" fill="#ffb8b8"/><path d="M609.824 311.807a4.496 4.496 0 0 1-1.787-.373l-12.848-5.562a4.506 4.506 0 0 1-2.342-5.917l9.932-22.942a11.5 11.5 0 1 1 21.107 9.135l-9.931 22.943a4.51 4.51 0 0 1-4.131 2.716Z" fill="#b4b6bb"/><path d="M493.57 311.482h-398a6.5 6.5 0 1 0 0 13h11.5v141.5a6.5 6.5 0 0 0 13 0v-129.01l72.871 132.078a6.5 6.5 0 0 0 11.258-6.5l-76.175-138.068H476.07v.084L399.941 462.55a6.5 6.5 0 1 0 11.258 6.5l64.871-117.578v114.51a6.5 6.5 0 0 0 13 0V327.91l1.891-3.428h2.609a6.5 6.5 0 0 0 0-13Z" fill="#3f3d56"/><path d="M739.485 473.949H1.19a1.19 1.19 0 0 1 0-2.382h738.294a1.19 1.19 0 0 1 0 2.382Z" fill="#3f3d56"/></svg>